<mxfile host="65bd71144e">
    <diagram id="EIsz2DVmC6sGtYGj7GTr" name="Page-1">
        <mxGraphModel dx="604" dy="467" grid="1" gridSize="10" guides="1" tooltips="1" connect="1" arrows="1" fold="1" page="1" pageScale="1" pageWidth="850" pageHeight="1100" math="0" shadow="0">
            <root>
                <mxCell id="0"/>
                <mxCell id="1" parent="0"/>
                <mxCell id="2" value="Labyrinth" style="rounded=0;whiteSpace=wrap;html=1;" parent="1" vertex="1">
                    <mxGeometry x="140" y="32" width="228" height="50" as="geometry"/>
                </mxCell>
                <mxCell id="4" value="" style="edgeStyle=segmentEdgeStyle;endArrow=classic;html=1;curved=0;rounded=0;endSize=8;startSize=8;entryX=0;entryY=0.5;entryDx=0;entryDy=0;exitX=0.5;exitY=1;exitDx=0;exitDy=0;" parent="1" source="2" edge="1">
                    <mxGeometry width="50" height="50" relative="1" as="geometry">
                        <mxPoint x="256" y="80" as="sourcePoint"/>
                        <mxPoint x="440" y="139" as="targetPoint"/>
                        <Array as="points">
                            <mxPoint x="256" y="82"/>
                            <mxPoint x="256" y="139"/>
                        </Array>
                    </mxGeometry>
                </mxCell>
                <mxCell id="27" value="listof" style="edgeLabel;html=1;align=center;verticalAlign=middle;resizable=0;points=[];" vertex="1" connectable="0" parent="4">
                    <mxGeometry x="0.3113" y="2" relative="1" as="geometry">
                        <mxPoint x="1" as="offset"/>
                    </mxGeometry>
                </mxCell>
                <mxCell id="10" value="Space" style="rounded=0;whiteSpace=wrap;html=1;" parent="1" vertex="1">
                    <mxGeometry x="440" y="112" width="228" height="50" as="geometry"/>
                </mxCell>
                <mxCell id="13" value="" style="edgeStyle=segmentEdgeStyle;endArrow=classic;html=1;curved=0;rounded=0;endSize=8;startSize=8;shadow=1;" parent="1" edge="1">
                    <mxGeometry width="50" height="50" relative="1" as="geometry">
                        <mxPoint x="255.5" y="138" as="sourcePoint"/>
                        <mxPoint x="256" y="223" as="targetPoint"/>
                        <Array as="points">
                            <mxPoint x="255.5" y="158"/>
                        </Array>
                    </mxGeometry>
                </mxCell>
                <mxCell id="15" value="Width (int)" style="edgeLabel;html=1;align=center;verticalAlign=middle;resizable=0;points=[];" parent="13" vertex="1" connectable="0">
                    <mxGeometry x="-0.1602" y="3" relative="1" as="geometry">
                        <mxPoint x="-3" as="offset"/>
                    </mxGeometry>
                </mxCell>
                <mxCell id="14" value="" style="edgeStyle=segmentEdgeStyle;endArrow=classic;html=1;curved=0;rounded=0;endSize=8;startSize=8;shadow=1;" parent="1" edge="1">
                    <mxGeometry width="50" height="50" relative="1" as="geometry">
                        <mxPoint x="255.5" y="221" as="sourcePoint"/>
                        <mxPoint x="256" y="306" as="targetPoint"/>
                        <Array as="points">
                            <mxPoint x="255.5" y="241"/>
                        </Array>
                    </mxGeometry>
                </mxCell>
                <mxCell id="16" value="Height (int)" style="edgeLabel;html=1;align=center;verticalAlign=middle;resizable=0;points=[];" parent="14" vertex="1" connectable="0">
                    <mxGeometry x="-0.1768" y="-2" relative="1" as="geometry">
                        <mxPoint as="offset"/>
                    </mxGeometry>
                </mxCell>
                <mxCell id="17" value="" style="edgeStyle=segmentEdgeStyle;endArrow=classic;html=1;curved=0;rounded=0;endSize=8;startSize=8;shadow=1;" edge="1" parent="1">
                    <mxGeometry width="50" height="50" relative="1" as="geometry">
                        <mxPoint x="255.5" y="303" as="sourcePoint"/>
                        <mxPoint x="256" y="388" as="targetPoint"/>
                        <Array as="points">
                            <mxPoint x="255.5" y="323"/>
                        </Array>
                    </mxGeometry>
                </mxCell>
                <mxCell id="18" value="Num (int)" style="edgeLabel;html=1;align=center;verticalAlign=middle;resizable=0;points=[];" vertex="1" connectable="0" parent="17">
                    <mxGeometry x="-0.1768" y="-2" relative="1" as="geometry">
                        <mxPoint x="1" as="offset"/>
                    </mxGeometry>
                </mxCell>
                <mxCell id="19" value="" style="edgeStyle=segmentEdgeStyle;endArrow=classic;html=1;curved=0;rounded=0;endSize=8;startSize=8;" edge="1" parent="1">
                    <mxGeometry width="50" height="50" relative="1" as="geometry">
                        <mxPoint x="553.33" y="162" as="sourcePoint"/>
                        <mxPoint x="553.83" y="247" as="targetPoint"/>
                        <Array as="points">
                            <mxPoint x="553.33" y="182"/>
                        </Array>
                    </mxGeometry>
                </mxCell>
                <mxCell id="20" value="Obstacle (bool)" style="edgeLabel;html=1;align=center;verticalAlign=middle;resizable=0;points=[];" vertex="1" connectable="0" parent="19">
                    <mxGeometry x="0.032" y="-4" relative="1" as="geometry">
                        <mxPoint x="3" y="-1" as="offset"/>
                    </mxGeometry>
                </mxCell>
                <mxCell id="23" value="" style="edgeStyle=segmentEdgeStyle;endArrow=classic;html=1;curved=0;rounded=0;endSize=8;startSize=8;" edge="1" parent="1">
                    <mxGeometry width="50" height="50" relative="1" as="geometry">
                        <mxPoint x="554.4" y="247" as="sourcePoint"/>
                        <mxPoint x="554.9" y="332" as="targetPoint"/>
                        <Array as="points">
                            <mxPoint x="554.4000000000001" y="267"/>
                        </Array>
                    </mxGeometry>
                </mxCell>
                <mxCell id="24" value="State (int)" style="edgeLabel;html=1;align=center;verticalAlign=middle;resizable=0;points=[];" vertex="1" connectable="0" parent="23">
                    <mxGeometry x="0.032" y="-4" relative="1" as="geometry">
                        <mxPoint x="3" y="-1" as="offset"/>
                    </mxGeometry>
                </mxCell>
                <mxCell id="25" value="" style="edgeStyle=segmentEdgeStyle;endArrow=classic;html=1;curved=0;rounded=0;endSize=8;startSize=8;" edge="1" parent="1">
                    <mxGeometry width="50" height="50" relative="1" as="geometry">
                        <mxPoint x="554.33" y="331" as="sourcePoint"/>
                        <mxPoint x="554.83" y="416" as="targetPoint"/>
                        <Array as="points">
                            <mxPoint x="554.33" y="351"/>
                        </Array>
                    </mxGeometry>
                </mxCell>
                <mxCell id="26" value="Coordinate (tuple(int, int))" style="edgeLabel;html=1;align=center;verticalAlign=middle;resizable=0;points=[];" vertex="1" connectable="0" parent="25">
                    <mxGeometry x="0.032" y="-4" relative="1" as="geometry">
                        <mxPoint x="3" y="-1" as="offset"/>
                    </mxGeometry>
                </mxCell>
                <mxCell id="28" value="&lt;div style=&quot;color: rgb(204, 204, 204); background-color: rgb(31, 31, 31); font-family: Menlo, Monaco, &amp;quot;Courier New&amp;quot;, monospace; line-height: 18px;&quot;&gt;&lt;div&gt;&lt;span style=&quot;color: #569cd6;&quot;&gt;class&lt;/span&gt; &lt;span style=&quot;color: #4ec9b0;&quot;&gt;Fighter&lt;/span&gt;:&lt;/div&gt;&lt;div&gt;  &lt;span style=&quot;color: #569cd6;&quot;&gt;def&lt;/span&gt; &lt;span style=&quot;color: #dcdcaa;&quot;&gt;__init__&lt;/span&gt;(&lt;span style=&quot;color: #9cdcfe;&quot;&gt;self&lt;/span&gt;, &lt;span style=&quot;color: #9cdcfe;&quot;&gt;name&lt;/span&gt;, &lt;span style=&quot;color: #9cdcfe;&quot;&gt;health&lt;/span&gt;, &lt;span style=&quot;color: #9cdcfe;&quot;&gt;coordinate, directions, sight&lt;/span&gt;):&lt;/div&gt;&lt;div&gt;    &lt;span style=&quot;color: #9cdcfe;&quot;&gt;self&lt;/span&gt;.&lt;span style=&quot;color: #9cdcfe;&quot;&gt;name&lt;/span&gt; &lt;span style=&quot;color: #d4d4d4;&quot;&gt;=&lt;/span&gt; &lt;span style=&quot;color: #9cdcfe;&quot;&gt;name&lt;/span&gt;&lt;/div&gt;&lt;div&gt;    &lt;span style=&quot;color: #9cdcfe;&quot;&gt;self&lt;/span&gt;.&lt;span style=&quot;color: #9cdcfe;&quot;&gt;health&lt;/span&gt; &lt;span style=&quot;color: #d4d4d4;&quot;&gt;=&lt;/span&gt; &lt;span style=&quot;color: #9cdcfe;&quot;&gt;health&lt;/span&gt;&lt;/div&gt;&lt;div&gt;    &lt;span style=&quot;color: #9cdcfe;&quot;&gt;self&lt;/span&gt;.&lt;span style=&quot;color: #9cdcfe;&quot;&gt;coordinate&lt;/span&gt; &lt;span style=&quot;color: #d4d4d4;&quot;&gt;=&lt;/span&gt; &lt;span style=&quot;color: #9cdcfe;&quot;&gt;coordinate&lt;/span&gt;&lt;/div&gt;&lt;div&gt;&lt;div style=&quot;line-height: 18px;&quot;&gt;    &lt;span style=&quot;color: #9cdcfe;&quot;&gt;self&lt;/span&gt;.&lt;span style=&quot;color: #9cdcfe;&quot;&gt;directions&lt;/span&gt; &lt;span style=&quot;color: #d4d4d4;&quot;&gt;=&lt;/span&gt; &lt;span style=&quot;color: #9cdcfe;&quot;&gt;directions&lt;/span&gt;&lt;/div&gt;&lt;/div&gt;&lt;div style=&quot;line-height: 18px;&quot;&gt;&lt;span style=&quot;color: #9cdcfe;&quot;&gt;self.sight = sight&lt;/span&gt;&lt;/div&gt;&lt;/div&gt;" style="text;html=1;align=center;verticalAlign=middle;resizable=0;points=[];autosize=1;strokeColor=none;fillColor=none;" vertex="1" parent="1">
                    <mxGeometry x="20" y="390" width="490" height="140" as="geometry"/>
                </mxCell>
            </root>
        </mxGraphModel>
    </diagram>
</mxfile>